<?xml version="1.0" encoding="utf-8"?>
<!-- Generator: Adobe Illustrator 26.0.3, SVG Export Plug-In . SVG Version: 6.00 Build 0)  -->
<svg version="1.1" id="Layer_1" xmlns="http://www.w3.org/2000/svg" xmlns:xlink="http://www.w3.org/1999/xlink" x="0px" y="0px"
	 viewBox="0 0 1366 324" style="enable-background:new 0 0 1366 324;" xml:space="preserve">
<style type="text/css">
	.st0{fill:#FFFFFF;}
</style>
<g>
	<g>
		<path class="st0" d="M111.7,315.8c-2.6-7.9-4.4-12.7-4.4-37.8v-48.3c0-28.6-9.7-39.1-31.6-39.1H59v125.2H10.7V8.3h72.9
			c50.1,0,71.6,23.3,71.6,70.7v24.2c0,31.6-10.1,52.3-31.6,62.4c24.2,10.1,32.1,33.4,32.1,65.4v47.4c0,14.9,0.4,25.9,5.3,37.3H111.7
			z M59,52.2v94.4h18.9c18,0,29-7.9,29-32.5V83.8c0-22-7.5-31.6-24.6-31.6H59z"/>
		<path class="st0" d="M246.6,137.9h66.3v43.9h-66.3v90.1h83.5v43.9H198.3V8.3h131.8v43.9h-83.5V137.9z"/>
		<path class="st0" d="M465.5,151.9l-17.6,163.8h-66.3L347.3,8.3h47l25.9,242.5L443.5,8.3h46.5l24.2,244.2l25-244.2h42.2
			l-34.3,307.5h-64.1L465.5,151.9z"/>
		<path class="st0" d="M604,8.3h48.3v307.5H604V8.3z"/>
		<path class="st0" d="M741.6,93.1v222.7h-43.5V8.3h60.6l49.6,184V8.3h43v307.5h-49.6L741.6,93.1z"/>
		<path class="st0" d="M897.2,8.3h76.4c48.3,0,72,26.8,72,76v155.5c0,49.2-23.7,76-72,76h-76.4V8.3z M945.5,52.2v219.6h27.2
			c15.4,0,24.6-7.9,24.6-29.9V82.1c0-22-9.2-29.9-24.6-29.9H945.5z"/>
	</g>
	<polygon class="st0" points="1162.6,310.4 1096.6,310.1 1186.4,153.3 1096.6,11 1163.2,12 1247.2,154.5 	"/>
	<polygon class="st0" points="1270.4,310.4 1204.4,310.1 1294.2,153.3 1204.4,11 1271,12 1355,154.5 	"/>
</g>
</svg>
